<?xml version="1.0" encoding="utf-8"?>
<!-- Generator: Adobe Illustrator 28.1.0, SVG Export Plug-In . SVG Version: 6.00 Build 0)  -->
<svg version="1.1" id="Layer_1" xmlns="http://www.w3.org/2000/svg" xmlns:xlink="http://www.w3.org/1999/xlink" x="0px" y="0px"
	 viewBox="0 0 1905.2 957.5" style="enable-background:new 0 0 1905.2 957.5;" xml:space="preserve">
<style type="text/css">
	.st0{fill:#FFFFFF;}
</style>
<g>
	<path d="M1207,15.3c0.7,0,1.3,0,2,0c0.9,0.4,1.8,0.8,2.7,1c46,10,92,20,138,30c10.7,2.3,21.4,4.7,32.3,7
		c-9.1,41.5-18.1,82.4-27,123.4c0.3,0.1,0.6,0.3,0.9,0.4c17.5-16.7,35-33.4,52.7-50.3c20.9,21.8,41.3,43.2,61.5,64.3
		c1.7-3.1,2.5-6.4,4.6-8.4c17-16.5,34.2-32.7,51.4-49c1.2-1.2,3-2.2,4.7-2.3c28.2-2.4,56.4-4.7,84.7-7.1c39.5-3.3,79-6.5,118.5-9.7
		c2.6-0.2,5.7,0.4,8,1.6c17.8,9.5,35.5,19.1,53.1,28.9c2.2,1.2,4.2,3.3,5.4,5.5c22.9,44.9,45.6,89.9,68.5,134.9c1.5,3,1.4,5.3,0,8.3
		c-13.6,27.3-27.1,54.5-40.3,82c-2.8,5.8-5.9,9.7-12.6,9.8c-0.6,0-1.1,0.7-2,1.3c6.7,1.3,12.9,2.5,19.1,3.7
		c-0.1,1.3-0.1,2.1-0.3,2.9c-8.6,44.1-17.2,88.2-26,132.3c-0.8,3.8,0.3,5.1,3.4,6.9c4.3,2.5,9.4,3.7,12.1,9
		c22.6,45.1,45.4,90.1,68.2,135c1.4,2.8,1.6,4.9,0.1,7.8c-13.4,27-26.8,53.9-39.8,81.1c-3,6.3-6.2,11.2-13.8,11.2
		c-0.3,0-0.6,0.6-1.1,1.2c6.4,1.3,12.5,2.5,19,3.7c-11.5,58.8-22.9,117.1-34.4,175.7c-1.7-0.2-2.9-0.3-4-0.5
		c-42.2-7.8-84.4-15.7-126.6-23.5c-58.3-10.8-116.5-21.6-174.7-32.6c-2.6-0.5-5.2-2.5-7-4.6c-3.4-3.9-6.1-8.3-9.7-13.3
		c-3.5,24.4-6.7,47.4-10,70.7c-59.9-8.3-119-16.5-178.4-24.8c1.5-11.2,3-21.9,4.6-33c-2.2,0.3-3.6,0.4-5.1,0.6
		c-25,4.7-50,9.5-75,14.3c-49.7,9.5-99.4,19-149.1,28.3c-2.2,0.4-5.3-0.5-7-2c-6.7-5.5-12.8-11.7-19.6-17.1
		c-2.3-1.9-5.8-3.3-8.8-3.3c-92-0.2-184-0.1-276-0.1c-1.8,0-3.6,0-5.4,0c-0.4,2.9-0.8,5.1-1.1,7.5c-7.1-0.6-13.7-1.1-20.4-1.7
		c-33.4-2.8-66.7-5.6-100.1-8.7c-3.9-0.4-6,0.6-7.9,4c-5.8,10-12.1,19.9-18.2,29.9c-2-1.2-3.6-2.1-5.2-3c-29-17-58-34.1-87-51
		c-2-1.2-4.7-2.1-6.9-1.7c-20.9,3.2-41.7,6.7-62.6,10.1c-40.3,6.5-80.5,13.1-120.8,19.4c-2.1,0.3-5-0.6-6.5-1.9
		c-23.8-20.9-47.4-42-71-63.1c-1.5-1.3-2.7-3.9-2.6-5.8c2-35.3,4.1-70.5,6.3-105.8c0.6-10.6,1.2-21.1,1.9-32.3
		c-2.3,0.9-3.8,1.5-5.3,2.2c-15.5,7.3-31,14.7-46.6,21.7c-3.7,1.7-5,3.6-4.8,7.8c2.2,61,4.1,121.9,6.1,182.9c0.1,3.4,0,6.9,0,10.3
		c-60.2,0-120,0-180.1,0c-0.2-3.8-0.4-7.2-0.5-10.7c-1.4-47.6-2.7-95.3-4.1-142.9c-2.5-88.8-4.9-177.6-7.4-266.4
		c-0.1-2.3-0.5-4.6-0.8-6.9c0-1,0-2,0-3c4.9-0.5,9.7-0.9,14.7-1.4c1.7-17.6,3.5-35,5.1-52.4c4.1-43.4,8.2-86.9,12.4-130.3
		c4.3-44.6,8.6-89.2,12.8-133.8c0.3-3.3,1.5-5.4,4.2-7.3c24.9-17.3,49.6-34.8,74.3-52.3c2.7-2,5.1-2.3,8.2-1.4
		c42.4,11.6,84.7,23.1,127.2,34.4c3.8,1,8.3,1,12.1,0c41.5-11.4,83-23,124.5-34.7c3.5-1,5.9-0.4,8.6,1.7
		c15.2,11.3,30.6,22.5,45.9,33.7c7,5.1,13.9,10.2,21.1,15.4c2.1-2.3,3.9-4.2,5.6-6.2c10.1-11.3,20.3-22.5,30.3-33.9
		c2.1-2.4,4.3-3.5,7.6-3.5c77.8,0.1,155.6,0.1,233.4,0.2c2.4,0,5.2,1,7.1,2.5c18.3,14.4,36.2,29.4,54.9,43.4
		c7.6,5.7,12.5,11.5,10.8,21.3c-0.1,0.7,0.1,1.5,0.2,3c1.7-1.6,2.9-2.6,4-3.8c7.2-7.4,14.4-14.8,21.8-22.1c1.6-1.5,3.8-2.9,5.9-3.2
		c21.3-3.5,42.7-6.8,64.1-10.2c49.8-7.9,99.6-15.7,149.4-23.7c3.3-0.5,5.6,0.1,8.2,2.1c10.7,8.8,21.6,17.3,32.4,25.9
		c11.8,9.4,23.7,18.9,35.7,28.5c0.5-1.5,0.9-2.6,1.2-3.8c9.8-44.2,19.5-88.4,29.2-132.6C1199.6,47,1203.3,31.2,1207,15.3z
		 M251,471.8c24.3,0,48,0,72,0c0-2.2,0-4,0-5.9c-0.3-58.2-0.6-116.3-1.1-174.5c0-4.1,1.1-5.7,5.1-6.7c17.4-4.4,34.7-9.3,52-14
		c1.4-0.4,2.9-0.6,4.7-0.9c3.6,67.5,7.2,134.7,10.8,201.9c24.4,0,48.3,0,72.5,0c-0.5-10-0.9-19.7-1.4-29.3
		c-2.2-43.8-4.4-87.5-6.6-131.3c-1.5-30.3-3.1-60.6-4.5-90.9c-0.1-3.1-1.2-5.1-3.7-7c-11.6-8.4-23.2-16.8-34.6-25.5
		c-2.7-2-5-2.3-8.2-1.4c-38.2,10.9-76.5,21.6-114.8,32.3c-2.9,0.8-6.3,0.9-9.2,0.1c-39.7-10.6-79.3-21.4-119-32.2
		c-3.2-0.9-5.6-0.5-8.2,1.5c-9.4,6.9-18.8,13.8-28.7,20c-6.1,3.8-9,8.1-9.7,15.7c-3,36.5-6.8,73-10.4,109.4
		c-3.6,37.1-7.1,74.3-10.7,111.4c-0.8,8-1.4,16.1-2.2,24.4c24.4,2,48.2,4,72.3,6c6.7-69.2,13.4-137.8,20.1-206.6
		c2,0.5,3.5,0.7,4.9,1.1c17.3,4.9,34.5,9.9,51.9,14.5c4,1.1,5.1,2.8,5.1,6.8c0.4,58.3,1,116.7,1.6,175
		C251,467.7,251,469.7,251,471.8z M719.4,866.1c6.7-69.1,13.4-137.8,20.1-206.9c19.3,5.4,37.8,10.8,56.5,15.7
		c4.2,1.1,5.3,2.9,5.4,7.1c0.4,57.8,1,115.7,1.6,173.5c0,2.4,0,4.9,0,7.4c24.3,0,47.9,0,72,0c0-2.2,0-4.2,0-6.1
		c-0.3-58.2-0.7-116.3-1.1-174.5c0-3.8,0.9-5.4,4.8-6.4c17.6-4.5,35-9.4,52.5-14.2c1.4-0.4,2.8-0.5,4.5-0.8
		c3.6,67.6,7.2,134.8,10.8,202c24.4,0,48.2,0,72.2,0c0-2.7,0.1-5.2,0-7.6c-2.2-44.4-4.5-88.9-6.7-133.3
		c-1.9-36.9-3.8-73.9-5.6-110.8c-0.2-3.2-1.4-5.1-3.9-6.9c-11.6-8.4-23.2-16.9-34.6-25.5c-2.5-1.9-4.7-2.2-7.7-1.4
		c-38.2,10.8-76.5,21.6-114.8,32.2c-3.2,0.9-6.9,0.9-10.1,0c-39.5-10.5-79-21.2-118.5-32c-3-0.8-5.2-0.5-7.8,1.3
		c-10.2,7.4-20.5,14.8-31.1,21.7c-4.8,3.1-7.4,6.5-7.1,12.4c0.2,3.9-0.7,7.9-1.1,11.9c-3.2,33-6.4,66-9.6,99
		c-3.2,33.5-6.5,67-9.7,100.5c-1.1,11.7-2.2,23.5-3.3,35.6C671.3,862.1,695.1,864.1,719.4,866.1z M1616.3,767.9
		c1.7-0.2,2.8-0.3,4-0.5c62.1-12.9,124.1-25.9,186.2-39c1.7-0.4,3.7-2.1,4.5-3.8c6.8-13.4,13.4-26.8,19.8-40.3
		c0.9-1.9,0.9-5-0.1-6.8c-16.2-32.4-32.6-64.8-49.1-97.1c-1-1.9-2.8-3.7-4.7-4.8c-7.2-4.2-14.7-7.8-21.9-12
		c-4.5-2.7-9.1-3.4-14.2-2.9c-14.3,1.4-28.5,2.5-42.8,3.7c-40.5,3.3-81,6.6-121.5,10c-2.1,0.2-4.5,1.3-6,2.7
		c-7.2,6.5-13.8,13.5-21.2,19.8c-4.2,3.6-5.6,7.8-6.2,12.9c-4.4,33.5-9,67-13.5,100.5c-4.5,33.2-8.9,66.3-13.5,99.5
		c-0.5,3.7,0.2,6.6,2.5,9.7c6.9,9.2,13.7,18.5,20.1,28c2.2,3.2,4.8,4.5,8.5,5.1c61.9,11.4,123.7,23,185.6,34.5
		c15,2.8,30,5.6,45.5,8.4c4.7-23.8,9.2-47.2,13.9-71c-66.9-12.5-133.3-24.8-199.7-37.2c3.4-26.2,6.8-51.8,10.1-77.4
		c0.4,0,0.7,0,1.1-0.1C1607.7,728.9,1611.9,748.2,1616.3,767.9z M1756.4,504.4c4.7-23.9,9.2-47.2,13.9-71
		c-66.8-12.5-133.2-24.8-199.7-37.2c3.5-26.4,6.9-52.2,10.2-77.9c0.3,0,0.6,0,0.9,0.1c4.3,19.4,8.6,38.9,12.9,58.6
		c1.8-0.3,3.1-0.4,4.4-0.6c61.4-12.8,122.8-25.7,184.2-38.3c3.6-0.7,5.3-2.4,6.8-5.5c6.1-12.8,12.3-25.5,18.7-38.1
		c1.6-3.1,1.6-5.5,0-8.7c-15.2-29.8-30.5-59.5-45.2-89.6c-3.5-7.1-7.9-12.3-15.1-15.4c-5.3-2.3-10.5-5.2-15.4-8.3
		c-4.4-2.7-8.8-3.2-13.8-2.8c-14.3,1.4-28.5,2.5-42.8,3.7c-39,3.1-78,6.3-117.1,9.3c-5.6,0.4-10,2.1-13.9,6.3
		c-5.1,5.5-10.5,10.7-16.3,15.5c-5.3,4.3-7.4,9.5-8.2,16.1c-8.8,66.5-17.8,133-26.7,199.5c-0.3,2.2,0.4,5,1.7,6.8
		c6.8,9.9,14,19.4,20.8,29.3c2.2,3.2,4.7,4.6,8.4,5.3c56.5,10.4,112.9,20.9,169.4,31.4C1715,496.7,1735.5,500.4,1756.4,504.4z
		 M1081.1,505.4c-0.1,1.3-0.3,2.1-0.3,3c-3,45-6,90.1-9,135.1c-4.5,66.8-9,133.6-13.4,200.4c-0.1,1.9,0.9,4.6,2.4,5.9
		c11,10.2,22.2,20.1,33.6,29.9c1.6,1.3,4.5,2.2,6.5,1.8c67.2-12.6,134.4-25.3,201.6-38.1c2.2-0.4,4.6-1.8,6.2-3.5
		c7.1-7.7,14-15.6,20.8-23.6c1.4-1.6,2.3-4.1,2.5-6.2c3.9-50.7,7.7-101.3,11.3-152c0.2-2.2-0.6-5-2-6.7
		c-8.2-9.9-16.6-19.6-25.1-29.2c-1.2-1.3-3.1-2.5-4.9-2.8c-7.1-0.9-14.2-1.4-21.4-2c-40.3-3.5-80.6-6.9-121-10.4
		c-7.2-0.6-14.4-1.4-21.7-2.1c2.3-33.5,4.6-66.5,7-99.6C1129.4,505.4,1105.5,505.4,1081.1,505.4z M793.7,330.8
		c-1-37.1-1.9-74.3-3.1-111.4c-0.1-1.8-1.3-4.1-2.7-5.3c-9.4-7.7-18.9-15.3-28.5-22.7c-1.8-1.4-4.5-2.4-6.8-2.4
		c-63.8-0.1-127.6-0.1-191.5,0c-2.3,0-5.2,1.4-6.8,3.1c-8.5,9-16.7,18.1-24.7,27.5c-1.9,2.2-3.4,5.5-3.6,8.3
		c-1.6,19.6-2.9,39.2-4.2,58.8c-1.5,21.4-2.9,42.9-4.4,64.3c-1.7,24.9-3.5,49.8-5.1,74.8c-0.1,1.9,0.9,4.2,2,5.9
		c8.3,11.9,16.7,23.7,25.3,35.3c1.4,1.9,4.5,3.5,6.9,3.5c70.3,0.2,140.6,0.2,211,0.1c2.3,0,5-0.9,6.9-2.2
		c9.9-7.1,19.6-14.4,29.1-21.9c1.6-1.3,2.9-4.1,2.9-6.2C795.6,403.8,794.7,367.3,793.7,330.8z M327.6,585.8
		c-0.2,3.3-0.5,6.4-0.7,9.5c-2.1,35.9-4.2,71.8-6.4,107.8c-2.5,41.4-5.1,82.8-7.4,124.2c-0.1,2,0.9,4.6,2.3,6
		c11.1,10.1,22.3,20.1,33.6,29.9c1.3,1.1,3.6,1.6,5.3,1.3c6.4-0.8,12.8-2,19.2-3c52.2-8.5,104.5-17,156.7-25.4
		c2.7-0.4,6,0.1,8.4,1.4c19.8,11.4,39.4,23,59,34.5c1.5,0.9,3.1,1.7,4.9,2.6c12.6-20.7,25.1-41,37.6-61.6
		c-16.5-9.9-32.2-19.5-48.2-28.8c-3.2-1.8-4.2-3.7-3.9-7.5c1.4-17.4,2.5-34.9,3.7-52.3c2.2-32.6,4.4-65.2,6.6-97.7
		c0.8-12.4,1.6-24.9,2.5-37.7c-24.5-2.1-48.5-4.1-73-6.2c-4.1,61-8.2,121.4-12.3,182.1c-42.3,6.8-84.3,13.5-127.1,20.3
		c3.8-66.8,7.6-133,11.5-199.6C375.7,585.8,351.9,585.8,327.6,585.8z M913.3,467.6c0.7-5.1,1.3-9.7,2-14.2
		c3.9-25.5,7.8-51,11.6-76.5c3.9-26,7.7-52,11.4-78.1c0.5-3.3,1.9-4.9,5.3-5.4c26.3-4.1,52.6-8.4,78.9-12.6
		c7.6-1.2,15.3-2.4,23.5-3.7c3,58.5,5.9,116.3,8.8,174c24.9,0,48.9,0,72.9,0c0-2.9,0.1-5.4,0-7.9c-1.5-29.6-3.1-59.2-4.5-88.9
		c-2-40.1-3.9-80.2-5.7-120.3c-0.2-3.5-1.3-5.8-4-8c-9.9-7.7-19.7-15.4-29.2-23.5c-3.7-3.2-7.4-3.8-11.9-3
		c-32.4,5.2-64.7,10.4-97.1,15.5c-24,3.8-48,7.4-72,11.3c-2.6,0.4-5.5,1.8-7.3,3.6c-7.2,6.9-14.1,14.2-20.9,21.5
		c-1.8,2-3.4,4.7-3.8,7.3c-2.2,12.8-4.1,25.6-6,38.5c-3.8,25.5-7.6,51-11.4,76.5c-4,26.3-7.9,52.7-12,79c-0.5,3.4,0.4,4.3,3.6,4.8
		c17.1,2.5,34.2,5.3,51.3,7.9C901.9,466.1,907.3,466.8,913.3,467.6z M150.7,560.5c-24.1,0-47.8,0-71.9,0c0,1.9,0,3.6,0,5.2
		c1.4,49,2.8,97.9,4.1,146.9c1.5,55.3,3,110.6,4.3,165.9c0.1,4.5,1.8,5.6,6,5.5c20.7-0.2,41.3-0.1,62-0.1c1.8,0,3.6-0.3,5.7-0.5
		c0-1.9,0-3.4,0-4.8c-0.8-23.5-1.6-47-2.4-70.4c-1.1-32.6-2.3-65.3-3.5-97.9c-0.1-3.4,0.9-5.3,4.2-6.9c18-8.3,35.9-16.8,53.8-25.2
		c30.9-14.5,61.7-29.1,92.6-43.4c4.8-2.2,5.1-4.2,3-8.5c-6-12.3-11.5-24.7-17.2-37.1c-3.6-7.8-7.2-15.6-11-24
		c-42.5,20.1-84.5,40-127.4,60.3C152,603.1,151.4,582.1,150.7,560.5z M1232.2,486.6c28.7-131,57.4-261.4,86.1-392.3
		c-23.9-5.2-47.2-10.3-70.9-15.5c-27.5,124.4-54.9,248.3-82.4,372.8c15.8,0,30.9,0,46.4,0c-0.6,9.2-1,17.8-1.7,26.5
		c-0.2,2.7,0.5,3.8,3.3,4.3C1219.1,483.6,1225.2,485.1,1232.2,486.6z M1422.7,515.7c-17.5,122.8-34.9,245-52.3,367.6
		c24.5,3.4,48.3,6.7,72.4,10c17.3-123,34.5-245.4,51.7-368.3C1470.4,521.9,1447,518.9,1422.7,515.7z M1407,202.8
		c-1,0.8-1.6,1.1-2,1.6c-40.7,38.9-81.4,77.8-122.1,116.8c-1.3,1.3-2.2,3.7-2.2,5.6c0,13.3,0.1,26.7,0.5,40c0.1,2,1.1,4.6,2.6,5.9
		c30.7,27.1,61.6,54,92.5,81c1.4,1.2,3.3,2.5,5.1,2.7c27.1,3.6,54.1,7.1,81.2,10.6c1.3,0.2,3.1-0.4,3.9-1.2c5-5.4,9.7-11,14.8-16.8
		c-39.8-34.5-79.3-68.9-119.2-103.5c31.9-30.3,63.3-60.2,94.9-90.2C1440.1,237.5,1423.7,220.3,1407,202.8z M1205.6,535.6
		c-0.5,7.4-0.9,13.9-1.4,20.8c11.2,1,22,2,32.7,3c33,2.9,66,5.9,99,8.6c3.3,0.3,5.4,1.6,7.5,4c4.6,5.5,9.4,10.8,14.5,16.7
		c0.5-1.6,0.8-2.2,0.9-2.8c3-21.2,6-42.5,9.1-63.7c0.5-3.1-0.3-5.2-2.8-7.3c-19.8-17.1-39.4-34.4-59.1-51.6
		c-3.7-3.3-7.5-6.5-11.7-10.1c-7.2,32.7-14.3,64.7-21.3,96.9C1250.2,545.2,1228.3,540.5,1205.6,535.6z M995.5,340.1
		c-9.3,0.1-9.3,0.1-10.4,8.3c-0.3,2.5-0.7,4.9-1.1,7.4c-6.6,43.9-13.1,87.9-19.7,131.8c-1.7,11.3-3.3,22.6-5,34.5
		c3.9-1.1,7.2-1.7,10.3-2.8c3.8-1.4,6.7-0.7,10,1.8c11.1,8.5,22.5,16.6,33.8,24.9c3.3,2.4,6.7,4.8,10.6,7.6c0.7-9.9,1.3-18.9,2-28.5
		c-7.3,0-14.1,0-21.1,0C1001.7,463.1,998.6,401.6,995.5,340.1z M943.1,526.7c-3.1-0.6-4.7-1-6.4-1.3c-42.7-6.6-85.5-13.2-128.2-19.7
		c-2.3-0.3-5.3,0.5-7.2,1.8c-6.3,4.3-12.2,9.2-18.5,13.5c-2.2,1.5-5.1,2.5-7.7,2.6c-14.3,0.2-28.6,0.1-43,0.1
		c-1.6,0-3.2,0.2-4.9,0.3c1.3,1.3,2.5,1.7,3.8,2.1c29.8,8.1,59.9,15.5,89.5,24.4c13.5,4.1,25.8,3.9,39.2-0.2
		C886.8,541.9,914.4,534.8,943.1,526.7z M478.2,525.8c-52.8,0-104.7,0-156.8,0c0.8,4.5,2.6,6.6,7.6,6.6c40.5-0.2,81-0.1,121.5-0.1
		c1.9,0,3.9,0,6.3,0c-3.6,63.5-7.3,126.4-10.9,189.7c6.9-1.1,13-2,19.4-3C469.6,654.5,473.9,590.4,478.2,525.8z M692.5,525.1
		c-0.1-0.4-0.2-0.9-0.3-1.3c-1.9,0-3.9,0-5.8,0c-62.7,0.6-125.3,1.1-188,1.7c-2.4,0-4.8,0-7.1,0c0,0.2,0,0.4,0,0.6
		c55.5,4.7,111,9.3,166.6,14c0,3.5,0,6.2,0,9.4C669.8,541.2,681.1,533.2,692.5,525.1z M204.1,542.2c11.4-5.4,22.2-10.5,32.9-15.6
		c-0.1-0.3-0.2-0.5-0.4-0.8c-6.7,0-13.4,0-20.2,0c-0.4,2.5-0.7,4.7-1.1,7c-4-0.2-7.6-0.4-11.3-0.6
		C204.1,535.6,204.1,538.4,204.1,542.2z M1441.5,343.6c2.9,2.5,5.2,4.4,8.1,6.9c0.8-5.8,1.5-10.6,2.3-16.7
		C1448,337.4,1445,340.3,1441.5,343.6z"/>
	<path class="st0" d="M250.3,470.9c0-2.1,0-4.1,0-6c-0.5-58.3-1.1-116.7-1.6-175c0-4-1.1-5.7-5.1-6.8c-17.4-4.6-34.6-9.6-51.9-14.5
		c-1.4-0.4-2.8-0.7-4.9-1.1c-6.7,68.8-13.4,137.4-20.1,206.6c-24.1-2-47.9-3.9-72.3-6c0.7-8.3,1.4-16.3,2.2-24.4
		c3.6-37.1,7.1-74.3,10.7-111.4c3.5-36.5,7.3-72.9,10.4-109.4c0.6-7.6,3.6-11.9,9.7-15.7c9.8-6.2,19.2-13.2,28.7-20
		c2.7-2,5.1-2.3,8.2-1.5c39.6,10.8,79.3,21.6,119,32.2c2.9,0.8,6.3,0.7,9.2-0.1c38.3-10.6,76.6-21.4,114.8-32.3
		c3.1-0.9,5.5-0.6,8.2,1.4c11.4,8.7,23,17.1,34.6,25.5c2.6,1.8,3.6,3.8,3.7,7c1.4,30.3,3,60.6,4.5,90.9c2.2,43.8,4.4,87.5,6.6,131.3
		c0.5,9.6,0.9,19.3,1.4,29.3c-24.2,0-48,0-72.5,0c-3.6-67.3-7.2-134.4-10.8-201.9c-1.8,0.3-3.3,0.5-4.7,0.9
		c-17.3,4.7-34.6,9.6-52,14c-4,1-5.2,2.6-5.1,6.7c0.5,58.2,0.8,116.3,1.1,174.5c0,1.8,0,3.7,0,5.9
		C298.3,470.9,274.6,470.9,250.3,470.9z"/>
	<path class="st0" d="M718.7,865.2c-24.3-2-48.1-4-72.4-6c1.1-12.1,2.2-23.9,3.3-35.6c3.2-33.5,6.4-67,9.7-100.5
		c3.2-33,6.4-66,9.6-99c0.4-4,1.3-8,1.1-11.9c-0.3-5.9,2.3-9.3,7.1-12.4c10.6-6.9,20.9-14.3,31.1-21.7c2.6-1.9,4.8-2.1,7.8-1.3
		c39.5,10.8,79,21.5,118.5,32c3.2,0.8,7,0.8,10.1,0c38.3-10.6,76.6-21.4,114.8-32.2c3-0.8,5.2-0.5,7.7,1.4
		c11.4,8.6,23,17.1,34.6,25.5c2.5,1.8,3.7,3.6,3.9,6.9c1.8,36.9,3.7,73.9,5.6,110.8c2.3,44.4,4.5,88.9,6.7,133.3
		c0.1,2.4,0,4.9,0,7.6c-24,0-47.7,0-72.2,0c-3.6-67.2-7.2-134.3-10.8-202c-1.7,0.3-3.1,0.4-4.5,0.8c-17.5,4.7-35,9.6-52.5,14.2
		c-3.9,1-4.8,2.6-4.8,6.4c0.5,58.2,0.8,116.3,1.1,174.5c0,2,0,3.9,0,6.1c-24.1,0-47.7,0-72,0c0-2.6,0-5,0-7.4
		c-0.6-57.8-1.2-115.7-1.6-173.5c0-4.2-1.1-5.9-5.4-7.1c-18.6-4.9-37.1-10.3-56.5-15.7C732.1,727.4,725.4,796.1,718.7,865.2z"/>
	<path class="st0" d="M1615.6,766.9c-4.4-19.7-8.6-38.9-12.9-58.2c-0.4,0-0.7,0-1.1,0.1c-3.4,25.6-6.7,51.2-10.1,77.4
		c66.4,12.4,132.8,24.7,199.7,37.2c-4.7,23.8-9.2,47.2-13.9,71c-15.4-2.9-30.5-5.6-45.5-8.4c-61.8-11.5-123.7-23.1-185.6-34.5
		c-3.6-0.7-6.3-1.9-8.5-5.1c-6.5-9.5-13.2-18.8-20.1-28c-2.3-3-3-6-2.5-9.7c4.6-33.2,9-66.3,13.5-99.5c4.5-33.5,9.1-67,13.5-100.5
		c0.7-5.1,2.1-9.3,6.2-12.9c7.3-6.3,14-13.3,21.2-19.8c1.6-1.4,3.9-2.5,6-2.7c40.5-3.4,81-6.7,121.5-10c14.3-1.2,28.6-2.3,42.8-3.7
		c5.2-0.5,9.7,0.2,14.2,2.9c7.2,4.2,14.7,7.9,21.9,12c1.9,1.1,3.7,2.9,4.7,4.8c16.5,32.3,32.9,64.7,49.1,97.1c0.9,1.9,1,4.9,0.1,6.8
		c-6.4,13.6-13,27-19.8,40.3c-0.8,1.6-2.8,3.4-4.5,3.8c-62,13.1-124.1,26-186.2,39C1618.4,766.6,1617.2,766.7,1615.6,766.9z
		 M1603.2,696.3c46.9-10.1,92.9-20,139.6-30.1c-4.9-9.8-9.7-18.9-14.1-28.1c-1.4-3-3-4.1-6.4-3.8c-24.1,2-48.1,3.7-72.2,5.5
		c-13.1,1-26.2,2.1-39.8,3.2C1607.9,660.5,1605.6,677.9,1603.2,696.3z"/>
	<path class="st0" d="M1755.7,503.4c-21-3.9-41.4-7.7-61.8-11.5c-56.4-10.5-112.9-21-169.4-31.4c-3.7-0.7-6.2-2.2-8.4-5.3
		c-6.8-9.9-14-19.4-20.8-29.3c-1.3-1.8-2-4.6-1.7-6.8c8.8-66.5,17.9-133,26.7-199.5c0.9-6.6,2.9-11.8,8.2-16.1
		c5.8-4.7,11.2-10,16.3-15.5c3.9-4.2,8.3-5.8,13.9-6.3c39-3,78-6.2,117.1-9.3c14.3-1.2,28.6-2.3,42.8-3.7c5-0.5,9.4,0,13.8,2.8
		c4.9,3.1,10,6,15.4,8.3c7.3,3.1,11.7,8.3,15.1,15.4c14.8,30,30,59.8,45.2,89.6c1.6,3.2,1.6,5.6,0,8.7
		c-6.4,12.6-12.6,25.3-18.7,38.1c-1.5,3.1-3.2,4.8-6.8,5.5c-61.4,12.7-122.8,25.5-184.2,38.3c-1.3,0.3-2.6,0.4-4.4,0.6
		c-4.4-19.7-8.6-39.1-12.9-58.6c-0.3,0-0.6,0-0.9-0.1c-3.4,25.7-6.8,51.5-10.2,77.9c66.6,12.4,132.9,24.8,199.7,37.2
		C1764.9,456.2,1760.4,479.5,1755.7,503.4z M1721.2,275.1c-5.2-10.4-10.1-20.2-15.3-29.9c-0.6-1.1-2.9-2-4.4-2
		c-5.5,0.1-11,0.7-16.5,1.1c-31.1,2.4-62.1,4.8-93.2,7.1c-2.8,0.2-3.6,1.4-3.8,4c-0.7,6.8-1.8,13.5-2.7,20.3
		c-1.2,9.5-2.4,19.1-3.7,29.4C1628.5,295.1,1674.5,285.2,1721.2,275.1z"/>
	<path class="st0" d="M1080.4,504.5c24.4,0,48.3,0,72.9,0c-2.3,33.2-4.6,66.2-7,99.6c7.3,0.7,14.5,1.4,21.7,2.1
		c40.3,3.5,80.6,6.9,121,10.4c7.1,0.6,14.3,1.1,21.4,2c1.7,0.2,3.7,1.4,4.9,2.8c8.5,9.6,16.9,19.3,25.1,29.2c1.4,1.7,2.1,4.5,2,6.7
		c-3.6,50.7-7.4,101.3-11.3,152c-0.2,2.1-1.1,4.6-2.5,6.2c-6.8,8-13.7,15.9-20.8,23.6c-1.5,1.7-4,3.1-6.2,3.5
		c-67.2,12.8-134.4,25.5-201.6,38.1c-2,0.4-4.9-0.4-6.5-1.8c-11.4-9.8-22.5-19.8-33.6-29.9c-1.4-1.3-2.5-4-2.4-5.9
		c4.4-66.8,8.9-133.6,13.4-200.4c3-45,6-90.1,9-135.1C1080.1,506.6,1080.2,505.8,1080.4,504.5z M1141.6,676.1
		c-2.8,41.9-5.6,83.1-8.4,124.6c2-0.2,3.3-0.3,4.6-0.5c39.2-7.5,78.4-15.1,117.6-22.3c4.3-0.8,5.6-2.3,5.9-6.6
		c1.3-19.8,3-39.5,4.5-59.3c0.6-8,1.1-16.1,1.7-24.4C1225.2,683.7,1183.7,679.9,1141.6,676.1z"/>
	<path class="st0" d="M793,329.9c0.9,36.5,1.9,73,2.7,109.4c0,2.1-1.3,4.9-2.9,6.2c-9.5,7.5-19.3,14.8-29.1,21.9
		c-1.9,1.3-4.6,2.2-6.9,2.2c-70.3,0.1-140.6,0.1-211-0.1c-2.3,0-5.5-1.6-6.9-3.5c-8.7-11.6-17-23.4-25.3-35.3c-1.2-1.7-2.2-4-2-5.9
		c1.6-24.9,3.4-49.9,5.1-74.8c1.5-21.4,2.9-42.9,4.4-64.3c1.4-19.6,2.6-39.2,4.2-58.8c0.2-2.9,1.7-6.1,3.6-8.3
		c8-9.4,16.3-18.5,24.7-27.5c1.6-1.7,4.5-3.1,6.8-3.1c63.8-0.2,127.6-0.2,191.5,0c2.3,0,5,1,6.8,2.4c9.7,7.4,19.2,15,28.5,22.7
		c1.4,1.2,2.7,3.5,2.7,5.3C791.1,255.6,792,292.8,793,329.9z M720.7,329.1c0,0-0.1,0-0.1,0c-0.4-21.2-0.9-42.3-1.3-63.5
		c-0.1-3.3-0.6-5.2-4.6-5.2c-38.3,0.1-76.6,0.1-115,0c-3.2,0-4.5,1.1-4.5,4.3c-0.2,6.8-0.6,13.6-1,20.5
		c-2.3,35.6-4.5,71.1-6.9,106.7c-0.3,4.4,1.3,5.3,5.3,5.2c41.5-0.1,83-0.2,124.5,0c5,0,5.8-1.8,5.6-6.2
		C721.8,370.4,721.3,349.8,720.7,329.1z"/>
	<path class="st0" d="M326.9,584.9c24.3,0,48,0,72.4,0c-3.8,66.5-7.6,132.8-11.5,199.6c42.7-6.8,84.7-13.6,127.1-20.3
		c4.1-60.7,8.2-121.1,12.3-182.1c24.5,2.1,48.5,4.1,73,6.2c-0.8,12.8-1.6,25.2-2.5,37.7c-2.2,32.6-4.4,65.2-6.6,97.7
		c-1.2,17.5-2.2,34.9-3.7,52.3c-0.3,3.7,0.8,5.6,3.9,7.5c15.9,9.3,31.7,18.9,48.2,28.8c-12.6,20.5-25,40.9-37.6,61.6
		c-1.8-1-3.4-1.7-4.9-2.6c-19.7-11.5-39.3-23.2-59-34.5c-2.3-1.3-5.7-1.9-8.4-1.4c-52.3,8.3-104.5,16.9-156.7,25.4
		c-6.4,1-12.8,2.2-19.2,3c-1.7,0.2-4-0.3-5.3-1.3c-11.3-9.8-22.6-19.7-33.6-29.9c-1.4-1.3-2.4-4-2.3-6c2.4-41.4,4.9-82.8,7.4-124.2
		c2.2-35.9,4.3-71.8,6.4-107.8C326.4,591.3,326.7,588.1,326.9,584.9z"/>
	<path class="st0" d="M912.6,466.7c-6-0.8-11.4-1.5-16.8-2.4c-17.1-2.6-34.2-5.4-51.3-7.9c-3.2-0.5-4.1-1.3-3.6-4.8
		c4.2-26.3,8.1-52.6,12-79c3.8-25.5,7.6-51,11.4-76.5c1.9-12.8,3.8-25.7,6-38.5c0.5-2.6,2-5.3,3.8-7.3c6.8-7.4,13.7-14.6,20.9-21.5
		c1.9-1.8,4.7-3.1,7.3-3.6c24-3.9,48-7.5,72-11.3c32.4-5.1,64.8-10.3,97.1-15.5c4.5-0.7,8.1-0.2,11.9,3c9.5,8.1,19.3,15.8,29.2,23.5
		c2.8,2.1,3.9,4.5,4,8c1.8,40.1,3.7,80.2,5.7,120.3c1.5,29.6,3,59.2,4.5,88.9c0.1,2.5,0,5,0,7.9c-24,0-48,0-72.9,0
		c-2.9-57.6-5.9-115.4-8.8-174c-8.2,1.3-15.8,2.4-23.5,3.7c-26.3,4.2-52.6,8.5-78.9,12.6c-3.4,0.5-4.8,2.1-5.3,5.4
		c-3.7,26-7.5,52.1-11.4,78.1c-3.8,25.5-7.7,51-11.6,76.5C913.9,457,913.3,461.6,912.6,466.7z"/>
	<path class="st0" d="M149.9,559.6c0.7,21.6,1.4,42.6,2.1,64.9c42.9-20.3,84.9-40.2,127.4-60.3c3.8,8.4,7.4,16.2,11,24
		c5.7,12.4,11.2,24.8,17.2,37.1c2.1,4.3,1.8,6.3-3,8.5c-31,14.3-61.8,28.9-92.6,43.4c-17.9,8.4-35.8,17-53.8,25.2
		c-3.3,1.5-4.3,3.4-4.2,6.9c1.2,32.6,2.4,65.3,3.5,97.9c0.8,23.5,1.6,47,2.4,70.4c0,1.5,0,2.9,0,4.8c-2.2,0.2-3.9,0.5-5.7,0.5
		c-20.7,0-41.3-0.1-62,0.1c-4.1,0-5.9-1-6-5.5c-1.3-55.3-2.8-110.6-4.3-165.9c-1.3-49-2.7-97.9-4.1-146.9c0-1.6,0-3.2,0-5.2
		C102.1,559.6,125.9,559.6,149.9,559.6z"/>
	<path class="st0" d="M1231.5,485.7c-7-1.5-13.1-3-19.3-4.1c-2.8-0.5-3.5-1.6-3.3-4.3c0.7-8.6,1.1-17.2,1.7-26.5
		c-15.5,0-30.6,0-46.4,0c27.5-124.5,54.9-248.4,82.4-372.8c23.8,5.2,47.1,10.3,70.9,15.5C1288.8,224.3,1260.2,354.7,1231.5,485.7z"
		/>
	<path class="st0" d="M1422,514.8c24.3,3.1,47.7,6.2,71.8,9.3c-17.3,122.9-34.5,245.4-51.7,368.3c-24.1-3.3-47.9-6.6-72.4-10
		C1387.1,759.8,1404.5,637.6,1422,514.8z"/>
	<path class="st0" d="M1406.3,201.8c16.7,17.5,33.2,34.7,50,52.3c-31.6,30-63,59.9-94.9,90.2c39.9,34.7,79.4,69,119.2,103.5
		c-5.1,5.8-9.8,11.4-14.8,16.8c-0.8,0.9-2.6,1.4-3.9,1.2c-27.1-3.4-54.2-6.9-81.2-10.6c-1.8-0.2-3.7-1.5-5.1-2.7
		c-30.9-26.9-61.8-53.9-92.5-81c-1.5-1.3-2.5-3.9-2.6-5.9c-0.4-13.3-0.5-26.7-0.5-40c0-1.9,0.9-4.3,2.2-5.6
		c40.6-39,81.3-77.9,122.1-116.8C1404.7,203,1405.3,202.6,1406.3,201.8z"/>
	<path d="M1603.2,696.3c2.4-18.3,4.7-35.8,7-53.4c13.6-1.1,26.7-2.2,39.8-3.2c24.1-1.8,48.2-3.5,72.2-5.5c3.4-0.3,5,0.8,6.4,3.8
		c4.4,9.3,9.2,18.4,14.1,28.1C1696.2,676.2,1650.1,686.2,1603.2,696.3z"/>
	<path d="M1721.2,275.1c-46.7,10.1-92.7,20-139.5,30.1c1.3-10.4,2.5-19.9,3.7-29.4c0.9-6.8,2-13.5,2.7-20.3c0.3-2.6,1-3.8,3.8-4
		c31.1-2.3,62.1-4.7,93.2-7.1c5.5-0.4,11-0.9,16.5-1.1c1.5,0,3.8,0.8,4.4,2C1711.1,255,1716,264.8,1721.2,275.1z"/>
	<path d="M1141.6,676.1c42.1,3.9,83.6,7.7,125.9,11.6c-0.6,8.3-1.1,16.3-1.7,24.4c-1.5,19.8-3.2,39.5-4.5,59.3
		c-0.3,4.3-1.6,5.8-5.9,6.6c-39.2,7.3-78.4,14.9-117.6,22.3c-1.3,0.2-2.6,0.3-4.6,0.5C1136,759.2,1138.8,718,1141.6,676.1z"/>
	<path d="M720.7,329.1c0.6,20.6,1.1,41.3,1.8,61.9c0.2,4.3-0.7,6.2-5.6,6.2c-41.5-0.2-83-0.2-124.5,0c-4,0-5.6-0.8-5.3-5.2
		c2.4-35.6,4.6-71.1,6.9-106.7c0.4-6.8,0.8-13.6,1-20.5c0.1-3.2,1.3-4.3,4.5-4.3c38.3,0.1,76.6,0.1,115,0c4.1,0,4.6,1.9,4.6,5.2
		c0.4,21.2,0.8,42.3,1.3,63.5C720.6,329.1,720.7,329.1,720.7,329.1z M644,343.1c8.1,0,15.6,0,22.9,0c0-9.8,0-19.2,0-29.1
		c-6.5,0-12.5-0.1-18.4,0.1c-1,0-2.7,1.6-2.8,2.5C644.9,325.3,644.5,334.1,644,343.1z"/>
</g>
</svg>